<svg xmlns="http://www.w3.org/2000/svg" viewBox="0 0 800 520">
<defs><linearGradient id="bg" x1="0" x2="1"><stop stop-color="#f8efe3"/><stop offset="1" stop-color="#e1efdf"/></linearGradient></defs>
<rect width="800" height="520" rx="50" fill="url(#bg)"/>
<ellipse cx="400" cy="420" rx="220" ry="30" fill="#17351f" opacity=".12"/>
<path d="M235 180c70-54 250-57 330 2l-44 242c-88 35-173 35-257 0z" fill="#e9ba6a"/>
<path d="M274 215c60-36 191-37 250 2l-30 177c-58 25-124 25-188 0z" fill="#8d4322"/>
<g fill="#3e9e4e"><path d="m291 239 49 20-36 36z"/><path d="m462 240 43 18-39 38z"/><path d="m353 328 50 16-40 36z"/></g>
<g fill="#f1d14b"><circle cx="399" cy="254" r="18"/><circle cx="445" cy="331" r="18"/><circle cx="334" cy="344" r="18"/></g>
</svg>